<?xml version="1.0" standalone="no"?>
<!DOCTYPE svg PUBLIC "-//W3C//DTD SVG 20010904//EN"
 "http://www.w3.org/TR/2001/REC-SVG-20010904/DTD/svg10.dtd">
<svg version="1.0" xmlns="http://www.w3.org/2000/svg"
 width="1080.000000pt" height="1080.000000pt" viewBox="0 0 1080.000000 1080.000000"
 preserveAspectRatio="xMidYMid meet">
<metadata>
Created by potrace 1.14, written by Peter Selinger 2001-2017
</metadata>
<g transform="translate(0.000000,1080.000000) scale(0.100000,-0.100000)"
fill="#000000" stroke="none">
<path d="M6140 8050 c-335 -27 -662 -119 -1238 -351 -347 -139 -307 -142 -369
28 -46 129 -94 190 -140 179 -15 -4 -43 -7 -61 -6 -27 1 -35 -5 -49 -35 -9
-19 -24 -35 -33 -35 -28 0 -43 -46 -29 -89 17 -51 64 -117 98 -137 32 -19 51
-82 29 -95 -20 -13 -157 -22 -247 -17 -62 4 -113 15 -181 38 -100 35 -128 39
-141 19 -6 -10 -21 -5 -58 19 -28 17 -51 28 -51 24 0 -10 201 -262 308 -387
254 -295 512 -498 646 -509 50 -3 70 -29 156 -201 122 -245 190 -478 190 -649
0 -97 -2 -106 -22 -121 l-23 -15 -6 97 c-7 114 -27 170 -75 212 -48 43 -94 53
-165 37 -31 -8 -63 -18 -71 -22 -7 -5 -29 -14 -48 -19 -30 -9 -38 -19 -63 -75
-24 -56 -27 -74 -23 -132 3 -36 12 -80 20 -97 20 -38 20 -70 2 -77 -8 -3 -17
-18 -21 -33 -4 -20 -27 -41 -88 -81 -100 -66 -228 -192 -283 -280 -23 -36
-101 -165 -173 -287 -118 -199 -137 -227 -186 -263 -65 -48 -79 -71 -71 -118
7 -46 60 -102 97 -102 15 0 30 -4 33 -9 10 -16 78 -20 110 -7 38 16 52 36 98
141 73 169 176 319 324 469 68 69 89 85 95 73 10 -18 -4 -187 -26 -307 -25
-135 -85 -357 -122 -455 -44 -115 -104 -349 -137 -535 -26 -146 -64 -281 -130
-465 -41 -115 -44 -147 -16 -193 21 -34 26 -108 14 -183 -5 -31 -13 -40 -47
-55 -62 -28 -87 -52 -87 -83 0 -31 27 -61 56 -61 10 0 38 -7 61 -15 33 -12 61
-13 137 -6 140 14 159 29 175 141 6 42 21 100 34 130 61 137 117 374 117 493
0 52 25 113 84 202 29 44 68 108 87 143 18 34 37 62 40 62 4 0 9 -18 13 -39 3
-22 22 -95 41 -163 31 -107 37 -144 44 -284 7 -134 5 -179 -9 -263 l-17 -101
-81 -84 c-84 -88 -97 -115 -90 -187 3 -32 6 -35 48 -42 107 -19 122 -18 272
13 84 17 185 34 223 37 39 2 85 9 102 15 60 18 78 70 48 141 -22 54 -18 100
16 185 49 122 49 122 64 429 l14 292 50 178 c28 98 60 228 72 289 l21 112 58
-117 c64 -130 117 -220 182 -309 l44 -59 -23 -227 c-12 -125 -36 -304 -53
-399 -24 -130 -30 -186 -25 -232 l7 -61 -46 -38 c-78 -63 -60 -113 50 -142 50
-13 75 -14 164 -4 58 6 117 17 133 25 26 13 27 13 27 -16 0 -40 45 -88 95
-100 88 -22 126 -27 272 -34 184 -8 205 -5 234 42 17 27 26 33 43 28 11 -3 78
-11 149 -18 122 -10 128 -10 155 10 20 15 28 30 30 59 3 36 -1 42 -62 99 l-66
61 1 60 c0 32 7 75 14 94 l13 35 1 -32 c1 -19 8 -36 19 -42 9 -6 11 -11 5 -11
-27 0 1 -133 34 -162 19 -17 198 -41 383 -52 210 -13 412 -63 524 -131 59 -36
86 -43 86 -25 0 22 -143 152 -227 207 -84 55 -247 131 -288 134 -52 5 205 27
318 28 103 1 127 4 127 15 0 28 -218 93 -406 121 -55 8 -153 16 -219 16 -111
2 -115 2 -50 9 39 4 117 17 175 29 58 12 146 25 195 29 70 5 90 10 90 22 0 20
-102 47 -235 61 -95 10 -249 8 -355 -6 l-40 -5 45 14 c25 8 83 30 130 50 47
19 112 42 144 50 65 17 71 20 62 34 -24 38 -357 10 -511 -44 -35 -11 137 105
192 132 55 25 71 54 31 54 -44 0 -205 -30 -266 -49 -57 -17 -61 -18 -52 -1 13
24 74 76 111 95 23 12 28 19 20 29 -10 12 -87 8 -158 -9 -13 -3 -23 -4 -23 -2
0 3 -11 65 -25 138 -18 92 -24 150 -20 184 10 82 95 609 100 624 8 22 26 -8
75 -127 36 -88 46 -103 69 -107 14 -3 40 -10 57 -15 71 -23 136 1 174 62 41
67 22 128 -62 200 -39 34 -75 83 -139 189 -96 161 -113 202 -104 253 8 39 19
51 87 89 53 31 82 73 98 141 15 70 0 116 -60 176 -28 28 -50 56 -50 62 0 6 29
194 65 417 36 223 90 559 120 746 30 187 77 481 105 653 27 173 50 324 50 337
0 12 -9 34 -21 49 -20 25 -24 26 -79 20 -52 -6 -59 -4 -69 15 -21 37 -87 63
-261 100 -227 49 -509 69 -730 51z m39 -515 c2 -3 -10 -20 -27 -38 -18 -18
-32 -41 -32 -50 0 -21 -9 -21 -38 -1 -25 17 -30 71 -9 93 11 12 92 9 106 -4z
m373 -56 c6 -30 8 -70 4 -90 -9 -48 -65 -137 -98 -157 -44 -26 -44 -6 0 42 65
71 91 155 73 235 -6 26 -6 40 0 34 5 -5 14 -34 21 -64z m-92 -739 c91 -11 221
-32 290 -46 69 -13 137 -24 152 -24 25 0 27 -3 22 -27 -2 -16 -38 -241 -79
-502 -41 -261 -77 -476 -80 -479 -5 -6 -268 189 -317 236 -20 19 -42 49 -49
66 -22 56 -50 86 -102 113 -65 32 -70 40 -103 138 -74 221 -188 361 -370 453
-42 21 -73 70 -59 93 13 20 496 6 695 -21z m109 -1645 c50 -52 91 -100 91
-107 1 -41 -75 -487 -82 -480 -14 14 -77 271 -98 397 -20 122 -27 285 -11 285
4 0 49 -43 100 -95z m-173 -1381 c17 -29 28 -65 31 -106 3 -35 3 -60 0 -57 -8
6 -77 196 -77 210 0 18 19 -1 46 -47z m627 -281 c-7 -2 -19 -2 -25 0 -7 3 -2
5 12 5 14 0 19 -2 13 -5z m-46 -9 c-3 -3 -12 -4 -19 -1 -8 3 -5 6 6 6 11 1 17
-2 13 -5z m116 -131 c-7 -2 -21 -2 -30 0 -10 3 -4 5 12 5 17 0 24 -2 18 -5z
m-76 -9 c-3 -3 -12 -4 -19 -1 -8 3 -5 6 6 6 11 1 17 -2 13 -5z m-50 -10 c-3
-3 -12 -4 -19 -1 -8 3 -5 6 6 6 11 1 17 -2 13 -5z m76 -111 c-13 -2 -35 -2
-50 0 -16 2 -5 4 22 4 28 0 40 -2 28 -4z m180 0 c-13 -2 -35 -2 -50 0 -16 2
-5 4 22 4 28 0 40 -2 28 -4z m80 -10 c-7 -2 -19 -2 -25 0 -7 3 -2 5 12 5 14 0
19 -2 13 -5z m-723 -156 l0 -28 -45 31 c-25 17 -45 36 -45 43 0 7 12 19 28 28
26 15 27 15 44 -15 9 -17 17 -44 18 -59z"/>
<path d="M7435 7828 c-2 -7 -22 -102 -43 -210 l-39 -198 52 0 52 0 13 73 c7
39 15 78 17 85 4 8 32 12 94 12 l89 0 -6 -27 c-3 -16 -10 -44 -15 -63 -18 -72
-15 -80 40 -80 l48 0 37 188 c21 103 40 197 43 210 5 21 2 22 -45 22 -57 0
-53 4 -73 -97 l-12 -63 -88 0 c-65 0 -89 3 -89 13 0 11 8 51 25 125 5 21 2 22
-45 22 -32 0 -52 -5 -55 -12z"/>
<path d="M7910 7838 c0 -3 -18 -94 -40 -203 -22 -109 -40 -202 -40 -207 0 -14
243 -9 294 6 101 31 166 118 166 224 0 74 -23 117 -79 150 -42 25 -56 27 -173
31 -71 1 -128 1 -128 -1z m234 -99 c48 -22 59 -107 21 -166 -29 -44 -74 -63
-147 -63 -38 0 -68 2 -68 4 0 7 41 212 45 224 6 15 114 16 149 1z"/>
<path d="M3860 3804 c-8 -9 1 -18 32 -37 24 -14 62 -45 86 -70 l43 -44 -69 23
c-65 22 -230 54 -279 54 -41 0 -25 -29 30 -54 55 -27 227 -143 192 -132 -154
54 -487 82 -511 44 -9 -14 -3 -17 62 -34 32 -8 97 -31 144 -50 47 -20 105 -42
130 -50 l45 -14 -40 5 c-106 14 -260 16 -355 6 -133 -14 -235 -41 -235 -61 0
-12 20 -17 90 -22 50 -4 137 -17 195 -29 58 -12 137 -25 175 -29 65 -7 61 -7
-50 -9 -66 0 -164 -8 -219 -16 -188 -28 -406 -93 -406 -121 0 -11 24 -14 128
-15 112 -1 369 -23 317 -28 -41 -3 -204 -79 -288 -134 -84 -55 -227 -185 -227
-207 0 -18 27 -11 86 25 112 68 314 118 524 131 185 11 364 35 383 52 32 29
61 162 35 162 -7 0 -5 5 4 13 9 7 18 34 22 62 3 28 12 75 20 105 9 30 16 56
16 58 0 1 -10 7 -22 13 -22 9 -22 9 2 5 23 -5 27 1 56 82 46 126 58 156 65
162 14 11 59 111 54 119 -6 11 -79 28 -163 39 -45 7 -65 5 -72 -4z m-57 -371
c-7 -2 -19 -2 -25 0 -7 3 -2 5 12 5 14 0 19 -2 13 -5z m44 -9 c-3 -3 -12 -4
-19 -1 -8 3 -5 6 6 6 11 1 17 -2 13 -5z m-104 -131 c-7 -2 -21 -2 -30 0 -10 3
-4 5 12 5 17 0 24 -2 18 -5z m64 -9 c-3 -3 -12 -4 -19 -1 -8 3 -5 6 6 6 11 1
17 -2 13 -5z m50 -10 c-3 -3 -12 -4 -19 -1 -8 3 -5 6 6 6 11 1 17 -2 13 -5z
m-224 -111 c-13 -2 -35 -2 -50 0 -16 2 -5 4 22 4 28 0 40 -2 28 -4z m180 0
c-13 -2 -35 -2 -50 0 -16 2 -5 4 22 4 28 0 40 -2 28 -4z m-290 -10 c-7 -2 -19
-2 -25 0 -7 3 -2 5 12 5 14 0 19 -2 13 -5z"/>
</g>
</svg>
